Coordinates
version=1
nRows=6
nColumns=46
inDegrees=yes

Units are S.I. units (second, meters, Newtons, ...)
Angles are in degrees.

endheader
time	pelvis_tilt	pelvis_list	pelvis_rotation	pelvis_tx	pelvis_ty	pelvis_tz	bb_angle	bb_tx	bb_ty	bb_tz	hip_flexion_r	hip_adduction_r	hip_rotation_r	knee_angle_r	knee_angle_r_beta	ankle_angle_r	subtalar_angle_r	mtp_angle_r	crank_angle_r	hip_flexion_l	hip_adduction_l	hip_rotation_l	knee_angle_l	knee_angle_l_beta	ankle_angle_l	subtalar_angle_l	mtp_angle_l	crank_angle_l	lumbar_extension	lumbar_bending	lumbar_rotation	arm_flex_r	arm_add_r	arm_rot_r	elbow_flex_r	pro_sup_r	wrist_flex_r	wrist_dev_r	arm_flex_l	arm_add_l	arm_rot_l	elbow_flex_l	pro_sup_l	wrist_flex_l	wrist_dev_l
      2.50000000	    -17.38869264	      0.66560421	      3.40909098	      0.05016392	      1.15161377	     -0.25291924	      0.00000000	      0.50000000	      0.00000000	      0.25000000	     52.86250718	     -7.80933629	     -5.80928957	     61.11006501	      1.06657184	     13.54766099	     -1.00999809	      0.00000000	      0.00000000	     85.94028412	     -5.88388739	     -2.47673269	     82.77744829	      1.44473902	     12.73125337	      0.23074052	      0.00000000	      0.00000000	    -55.78830207	     -0.05292909	      0.30920626	     89.89816710	      1.51632751	     10.35147502	     45.28512980	     20.74142671	      0.00000000	      0.00000000	     89.89115785	      6.11947778	     12.37687404	     45.24722275	     19.88706010	      0.00000000	      0.00000000
      2.50500000	    -17.40504508	      0.66338694	      3.38993414	      0.05003522	      1.15155125	     -0.25287954	      0.00000000	      0.50000000	      0.00000000	      0.25000000	     52.86060200	     -7.79217182	     -5.81845820	     61.03284954	      1.06522418	     13.53402320	     -0.95673483	      0.00000000	      0.00000000	     85.98995585	     -5.91456291	     -2.48155466	     82.84091762	      1.44584677	     12.76925825	      0.22592812	      0.00000000	      0.00000000	    -55.79658702	     -0.05782610	      0.33602665	     89.89768597	      1.90024177	      9.36206735	     46.55049863	     15.17097892	      0.00000000	      0.00000000	     89.89045788	      6.42892450	     11.63611266	     46.50492340	     13.97587210	      0.00000000	      0.00000000
      2.51000000	    -17.40555231	      0.67462882	      3.37203943	      0.04996474	      1.15152912	     -0.25282158	      0.00000000	      0.50000000	      0.00000000	      0.25000000	     52.82737097	     -7.78006331	     -5.80668155	     60.95063757	      1.06378931	     13.65523199	     -0.90564484	      0.00000000	      0.00000000	     86.02087866	     -5.93968166	     -2.48628677	     82.91136738	      1.44707635	     12.81177049	      0.26776098	      0.00000000	      0.00000000	    -55.79603036	     -0.08846572	      0.34306886	     89.89787658	      1.84768311	      9.49166221	     46.49304029	     15.42073170	      0.00000000	      0.00000000	     89.89039680	      6.47399125	     11.56824080	     46.45510282	     14.18821157	      0.00000000	      0.00000000
      2.51500000	    -17.45012838	      0.69927677	      3.34830692	      0.04985623	      1.15142159	     -0.25278499	      0.00000000	      0.50000000	      0.00000000	      0.25000000	     52.85185272	     -7.77989560	     -5.77682699	     60.85778055	      1.06216865	     13.59892853	     -0.89096009	      0.00000000	      0.00000000	     86.09506145	     -5.96343286	     -2.51275122	     82.98345618	      1.44833454	     12.86703306	      0.28193725	      0.00000000	      0.00000000	    -55.73604666	     -0.12048638	      0.33386968	     89.89802383	      1.94278190	      9.24286420	     45.64829002	     19.37576369	      0.00000000	      0.00000000	     89.89063975	      6.43832458	     11.55327705	     45.60247691	     18.33138503	      0.00000000	      0.00000000
      2.52000000	    -17.39148356	      0.70604911	      3.37031180	      0.04978770	      1.15157814	     -0.25278973	      0.00000000	      0.50000000	      0.00000000	      0.25000000	     52.72836625	     -7.80417587	     -5.82383083	     60.73085052	      1.05995330	     13.63847597	     -0.81962521	      0.00000000	      0.00000000	     86.05810630	     -5.95595036	     -2.51346340	     83.05008848	      1.44949749	     12.95131683	      0.34084492	      0.00000000	      0.00000000	    -55.82183943	     -0.12183034	      0.34734138	     89.89780289	      1.81106040	      9.46340980	     46.55058070	     15.25009712	      0.00000000	      0.00000000	     89.89075001	      6.49996848	     11.52214144	     46.55317954	     13.94165035	      0.00000000	      0.00000000
      2.52500000	    -17.27738422	      0.65911270	      3.37986603	      0.04976702	      1.15187374	     -0.25281273	      0.00000000	      0.50000000	      0.00000000	      0.25000000	     52.50857789	     -7.77229104	     -5.90351453	     60.55037003	      1.05680332	     13.67905771	     -0.73438168	      0.00000000	      0.00000000	     85.97901593	     -5.97174750	     -2.46357529	     83.13884993	      1.45104667	     13.04325734	      0.38055140	      0.00000000	      0.00000000	    -55.98463862	     -0.04016497	      0.39573040	     89.89791165	      2.15924584	      8.50920391	     45.94148821	     19.75399521	      0.00000000	      0.00000000	     89.89090149	      6.72858013	     10.74624736	     45.77337945	     18.63523011	      0.00000000	      0.00000000
